# 3ds Max Wavefront OBJ Exporter v0.97b - (c)2007 guruware
# File Created: 08.03.2018 13:59:59

mtllib Pine Tree 2.mtl

#
# object Hedra001
#

v  7.8111 68.2093 -6.3171
v  7.5718 67.8074 -14.0345
v  3.7823 76.7956 -10.1189
v  0.6623 79.2273 -10.2184
v  -6.5048 78.6219 -13.8901
v  -7.7450 79.5550 -6.9522
v  -9.6854 77.4913 -4.7137
v  -14.9025 68.2390 -2.8894
v  -8.8664 70.5090 1.4091
v  -6.6654 68.1022 3.2967
v  -4.9777 57.5113 7.7725
v  1.1385 63.8742 4.2083
v  4.0504 63.1646 2.7465
v  9.2495 54.7638 -0.6533
v  7.8662 65.4658 -3.7478
v  10.4875 50.2651 -1.1518
v  10.7556 40.0131 1.5156
v  13.1361 42.2785 -8.0704
v  13.1041 41.6437 -12.1261
v  11.8793 35.7794 -20.1515
v  10.3414 47.8160 -18.9602
v  9.0379 52.4734 -19.4240
v  5.1088 59.4069 -21.6545
v  7.5406 64.5886 -16.4827
v  -5.3817 66.0821 -19.6682
v  -11.8002 66.0876 -16.1289
v  -7.5239 75.8502 -15.7423
v  3.1209 58.8688 -22.5023
v  -1.2088 49.5688 -24.0588
v  -3.2565 62.6699 -21.0166
v  10.5428 32.1239 -21.7361
v  4.2883 24.1282 -18.7236
v  2.9181 29.7232 -26.1032
v  0.1728 32.1340 -26.6490
v  -8.5623 35.8203 -23.2206
v  -1.9913 44.2025 -24.8835
v  -15.3263 49.4683 -14.4511
v  -16.4540 57.8635 -10.7581
v  -13.5113 62.6066 -15.0685
v  -11.7195 35.8902 -20.9254
v  -17.0480 32.2748 -14.4740
v  -15.4353 44.2404 -15.3965
v  1.8230 22.9540 -14.3366
v  0.4469 25.0571 -0.4565
v  -9.5931 23.1460 -6.3317
v  -13.7688 24.3917 -6.0843
v  -18.8942 32.1546 -1.0713
v  -17.7891 29.8615 -11.5928
v  -17.5312 51.6853 -1.8802
v  -16.2042 64.2820 -3.7115
v  -16.9576 58.0903 -8.5485
v  -18.8277 35.7644 1.5337
v  -15.1927 42.8263 7.8509
v  -17.8223 47.4256 0.4498
v  2.1110 29.1593 3.2881
v  8.5800 37.5723 4.0067
v  -0.8849 38.2499 10.4125
v  -3.9289 41.2793 11.4247
v  -6.0508 52.8926 9.3081
v  -12.4663 44.0169 9.7595
v  0.7542 75.7489 -1.1116
v  11.1896 55.5690 -10.6199
v  2.0121 73.6122 -18.5145
v  7.2200 43.5991 -25.8099
v  -9.9490 51.8930 -19.9945
v  -9.0762 26.8252 -18.3533
v  -19.3525 42.7235 -8.0900
v  -12.0236 30.6526 8.2926
v  -14.0746 57.8087 4.7321
v  4.4834 50.4870 7.9919
v  12.7026 30.0333 -8.8210
v  -15.3568 73.1251 -10.7197
# 72 vertices

vn 1.2061 0.1232 -0.0384
vn -0.0565 0.6278 -0.2500
vn -0.9541 0.1660 0.5405
vn 0.2090 0.1462 0.9486
vn 1.0962 0.0676 0.4526
vn 1.2122 0.0146 0.1989
vn 1.2085 0.0425 -0.1819
vn 1.0709 0.0891 -0.4928
vn -0.7738 0.1222 -0.8188
vn -0.1977 0.1220 -1.0286
vn 0.8778 -0.2426 -0.5349
vn -0.5764 0.0618 -0.9269
vn -1.1534 0.0496 -0.3860
vn -1.0887 0.0410 -0.5052
vn 0.2604 -0.6135 0.2800
vn -1.1718 -0.1892 0.0361
vn -1.2313 0.0399 0.0012
vn -1.1737 0.0351 0.2870
vn 0.8206 -0.2028 0.7594
vn -0.2373 0.0370 0.9934
vn 1.1334 0.1631 0.2690
vn 0.9990 0.3010 0.2713
vn 0.3837 0.4908 0.4334
vn -0.1854 0.3621 0.7323
vn -0.2897 0.2746 0.8194
vn -0.1661 0.2304 0.8852
vn 0.2170 0.1496 0.9453
vn 0.7926 0.1175 0.7421
vn 1.0644 0.1064 0.4725
vn 1.1136 0.1291 0.3640
vn 1.2163 0.0434 0.1543
vn 1.2118 0.0611 0.1561
vn 1.2206 0.0413 0.1302
vn 1.2302 0.0343 -0.0153
vn 1.2097 0.0456 -0.1752
vn 1.1933 0.0702 -0.2279
vn 1.1985 0.0565 -0.2163
vn 1.2015 0.0602 -0.2023
vn 1.2218 0.0765 -0.0295
vn 1.2175 0.0471 0.1426
vn 1.0342 0.1130 -0.5391
vn 0.5315 0.1362 -0.9260
vn -0.1477 0.1426 -1.0319
vn -0.2749 0.1557 -1.0131
vn -0.3629 0.1748 -0.9904
vn -0.2182 0.3063 -0.9621
vn 0.4239 0.4608 -0.7123
vn 0.9843 0.3074 -0.4141
vn 1.1368 0.1712 -0.3005
vn 1.1065 0.1313 -0.4120
vn 1.0839 0.0931 -0.4708
vn 1.1328 0.0647 -0.3897
vn 1.1403 0.0544 -0.3762
vn 1.0609 0.0066 -0.5102
vn 0.8097 -0.0379 -0.7518
vn 0.2808 0.0140 -0.9994
vn -0.1764 0.0860 -1.0316
vn -0.1725 0.1016 -1.0322
vn -0.1336 0.1151 -1.0353
vn 0.5267 0.1410 -0.9273
vn -0.6903 0.0871 -0.8724
vn -0.8984 0.0677 -0.7263
vn -1.0453 0.0642 -0.5681
vn -1.0545 0.0688 -0.5554
vn -1.0428 0.0468 -0.5710
vn -0.9943 0.0634 -0.6307
vn -0.7759 0.0957 -0.8199
vn -0.6199 0.0859 -0.9085
vn -0.6501 0.0908 -0.8937
vn -0.6356 0.1085 -0.9003
vn -0.7805 -0.1296 -0.7420
vn -0.6206 -0.2159 -0.7653
vn -0.3653 -0.3777 -0.6690
vn -0.4302 -0.4813 -0.4343
vn -0.4940 -0.4946 -0.3576
vn -0.6213 -0.4645 -0.3418
vn -0.9486 -0.3051 -0.3519
vn -0.9807 -0.1676 -0.5253
vn -0.9272 -0.1148 -0.6315
vn -0.8710 -0.1157 -0.6822
vn -1.2304 -0.0194 -0.0671
vn -1.2323 0.0032 0.0232
vn -1.2258 0.0345 0.0786
vn -1.2261 0.0438 0.0661
vn -1.2276 0.0536 0.0345
vn -1.2158 0.0566 -0.1844
vn -1.1615 0.0455 -0.3677
vn -1.1653 0.0496 -0.3583
vn -1.1646 0.0445 -0.3603
vn -1.2103 0.0018 -0.2145
vn -1.0480 -0.2662 0.3628
vn -0.5202 -0.4948 0.5765
vn -0.1922 -0.5331 0.6552
vn 0.3749 -0.3779 0.8659
vn 0.4499 -0.2851 0.9180
vn 0.0558 -0.1621 1.0340
vn -0.3777 -0.0737 0.9835
vn -0.8270 -0.0578 0.7582
vn -1.0587 -0.0673 0.5153
vn -1.0994 -0.1277 0.4279
vn -0.5574 0.0954 0.8716
vn -0.4852 0.1281 0.8824
vn -0.4894 0.1155 0.8883
vn -0.5736 0.1294 0.8446
vn -0.9499 0.1467 0.5628
vn -1.1673 0.0665 0.2838
vn -1.1855 0.0462 0.2479
vn -1.1948 0.0697 0.1993
vn -1.1650 0.0468 0.3027
vn -0.9199 0.0606 0.6499
vn 0.3031 0.0565 0.9807
vn 0.5867 -0.0167 0.9156
vn 0.8651 -0.0570 0.7539
vn 1.0476 -0.0138 0.5600
vn 1.1211 0.0330 0.4301
vn 1.1208 0.0350 0.4298
vn 1.0939 0.0664 0.4572
vn 0.7901 0.1083 0.7500
vn 0.3800 0.1031 0.9407
vn 0.3255 0.0852 0.9631
vn 1.0310 -0.2273 0.5069
vn 0.9966 -0.2881 0.4819
vn 0.9269 -0.4156 0.2361
vn 0.9783 -0.3901 0.1044
vn 1.1043 -0.2407 -0.1761
vn 1.2067 -0.0835 -0.1345
vn 1.2282 -0.0251 -0.0652
vn 1.2330 -0.0187 0.0082
vn 1.2188 -0.0276 0.1782
vn 1.1516 -0.1152 0.3686
vn -1.1147 0.1751 0.2834
vn -1.0857 0.2908 0.0637
vn -1.0169 0.3524 -0.2467
vn -0.9602 0.2589 -0.5757
vn -0.9187 0.1332 -0.7001
vn -1.0418 0.0752 -0.5721
vn -1.1424 0.0393 -0.4097
vn -1.2187 0.0342 -0.1778
vn -1.2313 0.0402 0.0004
vn -1.2032 0.0848 0.1491
# 140 vertex normals

vt 0.0472 0.0000 0.5000
vt 0.2354 -0.1163 0.4281
vt 0.2354 0.1163 0.4281
vt 0.1927 0.3809 0.2646
vt 0.2646 0.1927 0.3809
vt 0.3809 0.2646 0.1927
vt 0.0472 -0.0000 0.5000
vt 0.3809 0.2646 -0.1927
vt 0.2646 0.1927 -0.3809
vt 0.1927 0.3809 -0.2646
vt -0.2354 0.1163 0.4281
vt -0.2354 -0.1163 0.4281
vt -0.0472 0.0000 0.5000
vt -0.1927 0.3809 -0.2646
vt -0.2646 0.1927 -0.3809
vt -0.3809 0.2646 -0.1927
vt 0.2354 -0.1163 -0.4281
vt 0.0472 -0.0000 -0.5000
vt 0.2354 0.1163 -0.4281
vt -0.3809 0.2646 0.1927
vt -0.2646 0.1927 0.3809
vt -0.1927 0.3809 0.2646
vt -0.0472 0.0000 -0.5000
vt -0.2354 -0.1163 -0.4281
vt -0.2354 0.1163 -0.4281
vt -0.3809 -0.2646 0.1927
vt -0.1927 -0.3809 0.2646
vt -0.2646 -0.1927 0.3809
vt 0.1927 -0.3809 0.2646
vt 0.3809 -0.2646 0.1927
vt 0.2646 -0.1927 0.3809
vt -0.3809 -0.2646 -0.1927
vt -0.2646 -0.1927 -0.3809
vt -0.1927 -0.3809 -0.2646
vt -0.0472 -0.0000 -0.5000
vt 0.1927 -0.3809 -0.2646
vt 0.2646 -0.1927 -0.3809
vt 0.3809 -0.2646 -0.1927
vt 0.0000 0.2739 0.4432
vt 0.4432 0.0000 0.2739
vt -0.0000 -0.2739 0.4432
vt 0.4432 -0.0000 -0.2739
vt -0.0000 0.2739 0.4432
vt 0.4432 -0.0000 0.2739
vt 0.0000 0.2739 -0.4432
vt -0.4432 0.0000 0.2739
vt 0.0000 -0.2739 -0.4432
vt -0.4432 0.0000 -0.2739
vt -0.4432 -0.0000 -0.2739
vt -0.0000 -0.2739 -0.4432
# 50 texture coords

o Hedra001
g Hedra001
usemtl wire_006135006
s off
f 1/1/1 2/2/1 3/3/1 
f 4/4/2 5/5/2 6/6/2 
f 7/3/3 8/7/3 9/2/3 
f 10/8/4 11/9/4 12/10/4 
f 13/11/5 14/12/5 15/13/5 
f 16/14/6 17/15/6 18/16/6 
f 19/17/7 20/18/7 21/19/7 
f 22/20/8 23/21/8 24/22/8 
f 25/1/9 26/2/9 27/3/9 
f 28/11/10 29/12/10 30/13/10 
f 31/23/11 32/24/11 33/25/11 
f 34/26/12 35/27/12 36/28/12 
f 37/29/13 38/30/13 39/31/13 
f 40/17/14 41/18/14 42/19/14 
f 43/32/15 44/33/15 45/34/15 
f 46/24/16 47/25/16 48/35/16 
f 49/12/17 50/13/17 51/11/17 
f 52/36/18 53/37/18 54/38/18 
f 55/24/19 56/25/19 57/35/19 
f 58/18/20 59/19/20 60/17/20 
f 61/39/21 1/1/21 3/3/21 
f 61/39/22 3/3/22 4/5/22 
f 61/39/23 4/5/23 6/4/23 
f 61/40/24 6/5/24 7/3/24 
f 61/40/25 7/3/25 9/2/25 
f 61/40/26 9/2/26 10/31/26 
f 61/39/27 10/22/27 12/21/27 
f 61/39/28 12/21/28 13/11/28 
f 61/39/29 13/11/29 15/13/29 
f 61/39/30 15/13/30 1/1/30 
f 62/41/31 15/13/31 14/12/31 
f 62/41/32 14/12/32 16/28/32 
f 62/41/33 16/28/33 18/27/33 
f 62/42/34 18/37/34 19/17/34 
f 62/42/35 19/17/35 21/19/35 
f 62/42/36 21/19/36 22/9/36 
f 62/41/37 22/29/37 24/31/37 
f 62/41/38 24/31/38 2/2/38 
f 62/41/39 2/2/39 1/1/39 
f 62/41/40 1/1/40 15/13/40 
f 63/43/41 24/22/41 23/21/41 
f 63/43/42 23/21/42 28/11/42 
f 63/43/43 28/11/43 30/13/43 
f 63/43/44 30/13/44 25/1/44 
f 63/43/45 25/1/45 27/3/45 
f 63/43/46 27/3/46 5/5/46 
f 63/43/47 5/5/47 4/4/47 
f 63/44/48 4/5/48 3/3/48 
f 63/44/49 3/3/49 2/2/49 
f 63/44/50 2/2/50 24/31/50 
f 64/45/51 23/10/51 22/9/51 
f 64/45/52 22/9/52 21/19/52 
f 64/45/53 21/19/53 20/18/53 
f 64/45/54 20/18/54 31/23/54 
f 64/45/55 31/23/55 33/25/55 
f 64/45/56 33/25/56 34/15/56 
f 64/45/57 34/15/57 36/14/57 
f 64/46/58 36/28/58 29/12/58 
f 64/46/59 29/12/59 28/11/59 
f 64/46/60 28/11/60 23/21/60 
f 65/41/61 36/28/61 35/27/61 
f 65/42/62 35/37/62 40/17/62 
f 65/42/63 40/17/63 42/19/63 
f 65/42/64 42/19/64 37/9/64 
f 65/41/65 37/29/65 39/31/65 
f 65/41/66 39/31/66 26/2/66 
f 65/41/67 26/2/67 25/1/67 
f 65/41/68 25/1/68 30/13/68 
f 65/41/69 30/13/69 29/12/69 
f 65/41/70 29/12/70 36/28/70 
f 66/47/71 35/37/71 34/36/71 
f 66/48/72 34/15/72 33/25/72 
f 66/48/73 33/25/73 32/24/73 
f 66/48/74 32/24/74 43/33/74 
f 66/47/75 43/34/75 45/33/75 
f 66/47/76 45/33/76 46/24/76 
f 66/47/77 46/24/77 48/35/77 
f 66/47/78 48/35/78 41/18/78 
f 66/47/79 41/18/79 40/17/79 
f 66/47/80 40/17/80 35/37/80 
f 67/45/81 48/35/81 47/25/81 
f 67/45/82 47/25/82 52/15/82 
f 67/45/83 52/15/83 54/14/83 
f 67/46/84 54/28/84 49/12/84 
f 67/46/85 49/12/85 51/11/85 
f 67/46/86 51/11/86 38/21/86 
f 67/45/87 38/10/87 37/9/87 
f 67/45/88 37/9/88 42/19/88 
f 67/45/89 42/19/89 41/18/89 
f 67/45/90 41/18/90 48/35/90 
f 68/48/91 47/25/91 46/24/91 
f 68/48/92 46/24/92 45/33/92 
f 68/47/93 45/34/93 44/33/93 
f 68/47/94 44/33/94 55/24/94 
f 68/47/95 55/24/95 57/35/95 
f 68/47/96 57/35/96 58/18/96 
f 68/47/97 58/18/97 60/17/97 
f 68/47/98 60/17/98 53/37/98 
f 68/47/99 53/37/99 52/36/99 
f 68/48/100 52/15/100 47/25/100 
f 69/42/101 60/17/101 59/19/101 
f 69/42/102 59/19/102 11/9/102 
f 69/41/103 11/29/103 10/31/103 
f 69/41/104 10/31/104 9/2/104 
f 69/41/105 9/2/105 8/7/105 
f 69/41/106 8/7/106 50/13/106 
f 69/41/107 50/13/107 49/12/107 
f 69/41/108 49/12/108 54/28/108 
f 69/41/109 54/28/109 53/27/109 
f 69/42/110 53/37/110 60/17/110 
f 70/45/111 59/19/111 58/18/111 
f 70/45/112 58/18/112 57/35/112 
f 70/45/113 57/35/113 56/25/113 
f 70/45/114 56/25/114 17/15/114 
f 70/45/115 17/15/115 16/14/115 
f 70/46/116 16/28/116 14/12/116 
f 70/46/117 14/12/117 13/11/117 
f 70/46/118 13/11/118 12/21/118 
f 70/45/119 12/10/119 11/9/119 
f 70/45/120 11/9/120 59/19/120 
f 71/49/121 56/25/121 55/24/121 
f 71/49/122 55/24/122 44/33/122 
f 71/50/123 44/34/123 43/33/123 
f 71/50/124 43/33/124 32/24/124 
f 71/50/125 32/24/125 31/23/125 
f 71/50/126 31/23/126 20/18/126 
f 71/50/127 20/18/127 19/17/127 
f 71/50/128 19/17/128 18/37/128 
f 71/50/129 18/37/129 17/36/129 
f 71/49/130 17/15/130 56/25/130 
f 72/39/131 8/7/131 7/3/131 
f 72/39/132 7/3/132 6/5/132 
f 72/39/133 6/5/133 5/4/133 
f 72/40/134 5/5/134 27/3/134 
f 72/40/135 27/3/135 26/2/135 
f 72/40/136 26/2/136 39/31/136 
f 72/39/137 39/22/137 38/21/137 
f 72/39/138 38/21/138 51/11/138 
f 72/39/139 51/11/139 50/13/139 
f 72/39/140 50/13/140 8/7/140 
# 140 faces

#
# object Cylinder001
#

v  -8.5207 0.0000 -10.1822
v  -1.3094 0.0000 -12.5253
v  3.1475 0.0000 -6.3910
v  -8.5207 0.0000 -2.5998
v  -1.3094 0.0000 -0.2566
v  -1.8462 3.2005 -10.8732
v  1.4103 3.2005 -6.3910
v  -7.1153 3.2005 -9.1611
v  -7.1153 3.2005 -3.6208
v  -1.8462 3.2005 -1.9088
v  -2.6859 30.2798 -8.2888
v  -4.9169 30.2798 -7.5639
v  -4.9169 30.2798 -5.2181
v  -1.3071 30.2798 -6.3910
v  -2.6859 30.2798 -4.4932
v  -1.8876 8.8009 -9.1568
v  -0.3094 9.3573 -6.4711
v  -4.9229 8.2934 -8.4202
v  -5.2206 8.5360 -5.2792
v  -2.3694 9.1935 -4.0746
v  -2.6632 15.2629 -8.2603
v  -0.9740 14.9855 -6.1127
v  -5.2360 14.9059 -7.3680
v  -5.1368 14.4079 -4.6690
v  -2.5027 14.4571 -3.8931
v  -2.7359 19.2367 -7.9414
v  -1.3092 19.3483 -6.0826
v  -4.9457 19.3910 -7.1694
v  -4.8847 19.5979 -4.8335
v  -2.6372 19.5715 -4.1618
# 30 vertices

vn 0.0000 -1.0000 -0.0000
vn 0.2716 0.4770 -0.8359
vn 0.2750 0.3943 -0.8769
vn 0.9225 0.3860 0.0050
vn 0.8789 0.4770 -0.0000
vn -0.7110 0.4770 -0.5166
vn -0.7334 0.4348 -0.5226
vn -0.7110 0.4770 0.5166
vn -0.7270 0.4433 0.5244
vn 0.2716 0.4770 0.8359
vn 0.2733 0.4166 0.8670
vn 0.0000 1.0000 -0.0000
vn 0.3633 0.2423 -0.8996
vn 0.9748 0.2183 0.0456
vn -0.7028 0.2694 -0.6584
vn -0.8526 0.2581 0.4545
vn 0.2344 0.1990 0.9515
vn 0.2716 0.1112 -0.9560
vn 0.9962 0.0868 -0.0020
vn -0.8395 0.0531 -0.5408
vn -0.7857 -0.0148 0.6184
vn 0.3204 0.0042 0.9473
vn 0.2884 0.0269 -0.9571
vn 0.9992 0.0353 -0.0188
vn -0.8247 0.0303 -0.5647
vn -0.7894 0.0395 0.6126
vn 0.3298 0.0429 0.9431
vn 0.3054 -0.0284 -0.9518
vn 0.9999 0.0023 -0.0123
vn -0.8031 -0.0167 -0.5956
vn -0.8146 0.0215 0.5796
vn 0.3123 0.0336 0.9494
# 32 vertex normals

vt 0.5281 0.0000 -0.3820
vt 0.9500 0.0000 1.0000
vt 0.7500 0.0000 1.0000
vt 0.0674 0.0000 -1.2361
vt 0.2045 0.0000 -0.3820
vt 0.9500 0.1057 1.0000
vt 0.7500 0.1057 1.0000
vt 0.1500 0.0000 1.0000
vt 0.1500 0.1057 1.0000
vt -0.0500 0.1057 1.0000
vt -0.0500 0.0000 1.0000
vt 0.3500 0.0000 1.0000
vt 0.3500 0.1057 1.0000
vt 0.5500 0.0000 1.0000
vt 0.5500 0.1057 1.0000
vt 0.9500 1.0000 1.0000
vt 0.5281 1.0000 -0.3820
vt 0.0674 1.0000 -1.2361
vt 0.7500 1.0000 1.0000
vt 0.5500 1.0000 1.0000
vt 0.9500 0.2918 1.0000
vt 0.7500 0.2918 1.0000
vt 0.1500 0.2918 1.0000
vt -0.0500 0.2918 1.0000
vt 0.3500 0.2918 1.0000
vt 0.5500 0.2918 1.0000
vt 0.9500 0.4889 1.0000
vt 0.7500 0.4889 1.0000
vt 0.1500 0.4889 1.0000
vt -0.0500 0.4889 1.0000
vt 0.3500 0.4889 1.0000
vt 0.5500 0.4889 1.0000
vt 0.9500 0.6417 1.0000
vt 0.7500 0.6417 1.0000
vt 0.1500 0.6417 1.0000
vt -0.0500 0.6417 1.0000
vt 0.3500 0.6417 1.0000
vt 0.5500 0.6417 1.0000
vt 0.1500 1.0000 1.0000
vt -0.0500 1.0000 1.0000
vt 0.3500 1.0000 1.0000
# 41 texture coords

o Cylinder001
g Cylinder001
usemtl wire_009003000
s 1
f 73/51/141 74/52/141 75/53/141 
f 76/54/141 73/51/141 75/53/141 
f 77/55/141 76/54/141 75/53/141 
s 8
f 74/52/142 78/56/143 79/57/144 
f 79/57/144 75/53/145 74/52/142 
f 73/58/146 80/59/147 78/60/143 
f 78/60/143 74/61/142 73/58/146 
f 76/62/148 81/63/149 80/59/147 
f 80/59/147 73/58/146 76/62/148 
f 77/64/150 82/65/151 81/63/149 
f 81/63/149 76/62/148 77/64/150 
f 75/53/145 79/57/144 82/65/151 
f 82/65/151 77/64/150 75/53/145 
s 1
f 83/66/152 84/67/152 85/68/152 
f 86/69/152 83/66/152 85/68/152 
f 87/70/152 86/69/152 85/68/152 
s 8
f 88/71/153 89/72/154 79/57/144 
f 79/57/144 78/56/143 88/71/153 
f 90/73/155 88/74/153 78/60/143 
f 78/60/143 80/59/147 90/73/155 
f 91/75/156 90/73/155 80/59/147 
f 80/59/147 81/63/149 91/75/156 
f 92/76/157 91/75/156 81/63/149 
f 81/63/149 82/65/151 92/76/157 
f 89/72/154 92/76/157 82/65/151 
f 82/65/151 79/57/144 89/72/154 
f 93/77/158 94/78/159 89/72/154 
f 89/72/154 88/71/153 93/77/158 
f 95/79/160 93/80/158 88/74/153 
f 88/74/153 90/73/155 95/79/160 
f 96/81/161 95/79/160 90/73/155 
f 90/73/155 91/75/156 96/81/161 
f 97/82/162 96/81/161 91/75/156 
f 91/75/156 92/76/157 97/82/162 
f 94/78/159 97/82/162 92/76/157 
f 92/76/157 89/72/154 94/78/159 
f 98/83/163 99/84/164 94/78/159 
f 94/78/159 93/77/158 98/83/163 
f 100/85/165 98/86/163 93/80/158 
f 93/80/158 95/79/160 100/85/165 
f 101/87/166 100/85/165 95/79/160 
f 95/79/160 96/81/161 101/87/166 
f 102/88/167 101/87/166 96/81/161 
f 96/81/161 97/82/162 102/88/167 
f 99/84/164 102/88/167 97/82/162 
f 97/82/162 94/78/159 99/84/164 
f 83/66/168 86/69/169 99/84/164 
f 99/84/164 98/83/163 83/66/168 
f 84/89/170 83/90/168 98/86/163 
f 98/86/163 100/85/165 84/89/170 
f 85/91/171 84/89/170 100/85/165 
f 100/85/165 101/87/166 85/91/171 
f 87/70/172 85/91/171 101/87/166 
f 101/87/166 102/88/167 87/70/172 
f 86/69/169 87/70/172 102/88/167 
f 102/88/167 99/84/164 86/69/169 
# 56 faces

