# 3ds Max Wavefront OBJ Exporter v0.97b - (c)2007 guruware
# File Created: 08.12.2017 02:44:26

mtllib Drumstick.mtl

#
# object Box001
#

v  1.9913 0.2918 14.2930
v  1.9913 0.2918 -2.1293
v  10.2222 0.2918 -2.1293
v  10.2222 0.2918 14.2930
v  1.9913 19.0273 14.2930
v  10.2222 19.0273 14.2930
v  10.2222 19.0273 -2.1293
v  1.9913 19.0273 -2.1293
v  15.4987 5.5578 14.2930
v  15.4987 5.5578 -2.1293
v  15.4987 13.7614 -2.1293
v  15.4987 13.7614 14.2930
v  10.5778 7.2717 -7.6309
v  8.2471 5.1592 -7.6309
v  3.9221 5.1592 -7.6309
v  1.6357 7.2077 -7.6309
v  1.6357 11.7146 -7.6309
v  3.8145 14.1600 -7.6309
v  8.6602 14.1600 -7.6309
v  10.5778 11.7839 -7.6309
v  -3.2852 5.5578 -2.1293
v  -3.2852 13.7614 -2.1293
v  -3.2852 5.5578 14.2930
v  -3.2852 13.7614 14.2930
v  7.8255 5.7693 57.0503
v  10.0071 7.9509 57.0503
v  7.8255 7.9509 58.5371
v  8.8006 1.7097 21.0760
v  3.4129 1.7097 21.0760
v  14.0771 12.8173 21.0760
v  14.0771 6.9757 21.0760
v  3.4129 17.6094 21.0760
v  8.8006 17.6094 21.0760
v  -1.8636 6.9757 21.0760
v  -1.8636 12.3434 21.0760
v  8.4539 4.0930 27.0477
v  3.7167 4.0930 27.0477
v  11.6877 12.2180 27.0477
v  11.6877 7.4358 27.0477
v  3.7236 15.2261 27.0477
v  8.3871 15.2261 27.0477
v  0.5258 7.5075 27.0477
v  0.5258 11.8678 27.0477
v  7.8056 5.7197 31.5460
v  4.3476 5.7197 31.5460
v  10.0567 11.5144 31.5460
v  10.0567 7.9166 31.5460
v  4.3809 13.5994 31.5460
v  7.8603 13.5994 31.5460
v  2.1568 8.0020 31.5460
v  2.1568 11.3371 31.5460
v  7.4696 6.4622 36.2016
v  4.7439 6.4622 36.2016
v  9.3124 11.0141 36.2016
v  9.3124 8.3050 36.2016
v  4.7439 12.8569 36.2016
v  7.4696 12.8569 36.2016
v  2.9011 8.3050 36.2016
v  2.9011 11.0141 36.2016
v  7.4696 6.4622 40.8571
v  4.7439 6.4622 40.8571
v  9.3124 11.0141 40.8571
v  9.3124 8.3050 40.8571
v  4.7439 12.8569 40.8571
v  7.4696 12.8569 40.8571
v  2.9011 8.3050 40.8571
v  2.9011 11.0141 40.8571
v  7.4696 6.4622 45.5127
v  4.7439 6.4622 45.5127
v  9.3124 11.0141 45.5127
v  9.3124 8.3050 45.5127
v  4.7439 12.8569 45.5127
v  7.4696 12.8569 45.5127
v  2.9011 8.3050 45.5127
v  2.9011 11.0141 45.5127
v  7.9902 5.6049 49.2073
v  4.2233 5.6049 49.2073
v  10.1718 11.5326 49.2073
v  10.1718 7.7865 49.2073
v  4.2233 13.7142 49.2073
v  7.9902 13.7142 49.2073
v  2.0417 7.7865 49.2073
v  2.0417 11.5326 49.2073
v  8.5802 5.0165 51.6182
v  3.6333 5.0165 51.6182
v  10.7618 12.1210 51.6182
v  10.7618 7.1981 51.6182
v  3.6333 14.3026 51.6182
v  8.5802 14.3026 51.6182
v  1.4517 7.1981 51.6182
v  1.4517 12.1210 51.6182
v  8.5802 5.0165 54.6036
v  3.6333 5.0165 54.6036
v  10.7618 12.1210 54.6036
v  10.7618 7.1981 54.6036
v  3.6333 14.3026 54.6036
v  8.5802 14.3026 54.6036
v  1.4517 7.1981 54.6036
v  1.4517 12.1210 54.6036
v  4.3880 5.7693 57.0503
v  10.0071 11.3682 57.0503
v  4.3880 13.5498 57.0503
v  7.8255 13.5498 57.0503
v  2.2064 7.9509 57.0503
v  2.2064 11.3682 57.0503
v  4.3880 7.9509 58.5371
v  7.8255 11.3682 58.5371
v  4.3880 11.3682 58.5371
# 108 vertices

vn -0.3895 -0.9118 0.1301
vn -0.3583 -0.8682 -0.3433
vn 0.3586 -0.8678 -0.3439
vn 0.3895 -0.9118 0.1301
vn -0.3895 0.9118 0.1301
vn 0.3895 0.9118 0.1301
vn 0.3561 0.8712 -0.3380
vn -0.3577 0.8691 -0.3417
vn 0.9114 -0.3904 0.1302
vn 0.8691 -0.3574 -0.3420
vn 0.8669 0.3590 -0.3458
vn 0.9154 0.3851 0.1176
vn 0.4324 -0.2020 -0.8788
vn 0.1659 -0.4348 -0.8851
vn -0.1652 -0.4353 -0.8850
vn -0.4329 -0.2056 -0.8777
vn -0.4319 0.1614 -0.8874
vn -0.2023 0.4332 -0.8783
vn 0.2263 0.4339 -0.8721
vn 0.4332 0.1491 -0.8889
vn -0.8696 -0.3570 -0.3411
vn -0.8664 0.3594 -0.3468
vn -0.9114 -0.3903 0.1302
vn -0.9114 0.3904 0.1302
vn 0.2739 -0.7653 0.5825
vn 0.7651 -0.2740 0.5827
vn 0.2727 -0.2727 0.9227
vn 0.3414 -0.8875 0.3096
vn -0.3409 -0.8880 0.3087
vn 0.8760 0.3742 0.3042
vn 0.8857 -0.3433 0.3126
vn -0.3410 0.8879 0.3088
vn 0.3224 0.8942 0.3106
vn -0.8848 -0.3440 0.3142
vn -0.8855 0.3435 0.3130
vn 0.3759 -0.8531 0.3618
vn -0.3847 -0.8503 0.3593
vn 0.8453 0.3837 0.3718
vn 0.8615 -0.3560 0.3619
vn -0.3805 0.8515 0.3607
vn 0.3442 0.8664 0.3619
vn -0.8641 -0.3467 0.3649
vn -0.8620 0.3527 0.3641
vn 0.3635 -0.8900 0.2752
vn -0.3799 -0.8826 0.2770
vn 0.8794 0.3817 0.2846
vn 0.8842 -0.3804 0.2711
vn -0.3731 0.8856 0.2767
vn 0.3613 0.8918 0.2724
vn -0.8920 -0.3635 0.2686
vn -0.8894 0.3683 0.2707
vn 0.3805 -0.9205 0.0884
vn -0.3790 -0.9209 0.0908
vn 0.9216 0.3764 0.0952
vn 0.9209 -0.3792 0.0907
vn -0.3798 0.9207 0.0895
vn 0.3791 0.9209 0.0906
vn -0.9203 -0.3814 0.0872
vn -0.9204 0.3809 0.0880
vn 0.3827 -0.9239 -0.0000
vn -0.3827 -0.9239 -0.0000
vn 0.9239 0.3827 -0.0000
vn 0.9239 -0.3827 -0.0000
vn -0.3827 0.9239 -0.0000
vn 0.3827 0.9239 -0.0000
vn -0.9239 -0.3827 -0.0000
vn -0.9239 0.3827 -0.0000
vn 0.3742 -0.9175 -0.1348
vn -0.3742 -0.9175 -0.1348
vn 0.9174 0.3743 -0.1350
vn 0.9174 -0.3743 -0.1350
vn -0.3742 0.9175 -0.1348
vn 0.3742 0.9175 -0.1348
vn -0.9174 -0.3743 -0.1350
vn -0.9174 0.3743 -0.1350
vn 0.3547 -0.8917 -0.2812
vn -0.3547 -0.8917 -0.2812
vn 0.8916 0.3547 -0.2815
vn 0.8916 -0.3547 -0.2815
vn -0.3547 0.8917 -0.2812
vn 0.3547 0.8917 -0.2812
vn -0.8916 -0.3547 -0.2815
vn -0.8916 0.3547 -0.2815
vn 0.3902 -0.9084 -0.1499
vn -0.3902 -0.9084 -0.1499
vn 0.9085 0.3901 -0.1501
vn 0.9085 -0.3901 -0.1501
vn -0.3902 0.9085 -0.1499
vn 0.3902 0.9085 -0.1499
vn -0.9085 -0.3901 -0.1501
vn -0.9085 0.3901 -0.1501
vn 0.3899 -0.9023 0.1841
vn -0.3899 -0.9023 0.1841
vn 0.9023 0.3898 0.1842
vn 0.9023 -0.3898 0.1842
vn -0.3899 0.9023 0.1841
vn 0.3899 0.9023 0.1841
vn -0.9023 -0.3898 0.1842
vn -0.9023 0.3898 0.1842
vn -0.2739 -0.7653 0.5825
vn 0.7651 0.2740 0.5827
vn -0.2739 0.7653 0.5825
vn 0.2739 0.7653 0.5825
vn -0.7651 -0.2740 0.5827
vn -0.7651 0.2740 0.5827
vn -0.2727 -0.2727 0.9227
vn 0.2727 0.2727 0.9227
vn -0.2727 0.2727 0.9227
# 108 vertex normals

vt 0.8874 0.0000 0.0000
vt 0.8874 0.8178 0.0000
vt 0.1126 0.8178 0.0000
vt 0.1126 0.0000 0.0000
vt 0.0000 0.1126 0.0000
vt 0.0000 0.1129 0.0000
vt 0.8178 0.1129 0.0000
vt 0.8178 0.8871 0.0000
vt 0.0000 0.8871 0.0000
vt 0.0000 0.1424 0.0000
vt 0.1421 0.0000 0.0000
vt 0.8579 0.0000 0.0000
vt 1.0000 0.1424 0.0000
vt 1.0000 0.8576 0.0000
vt 0.8579 1.0000 0.0000
vt 0.1421 1.0000 0.0000
vt 0.0000 0.8576 0.0000
vt 0.1822 0.1129 0.0000
vt 0.1822 0.8871 0.0000
vt 0.8871 0.0000 0.0000
vt 1.0000 0.8871 0.0000
vt 0.2797 0.0000 0.0000
vt 0.0000 0.2804 0.0000
vt 0.2013 0.2020 0.0000
vt 0.1538 0.0000 0.0000
vt 0.8462 0.0000 0.0000
vt 0.0000 0.8458 0.0000
vt 0.0000 0.1542 0.0000
vt 0.0000 0.8874 0.0000
vt 0.0000 0.1538 0.0000
vt 0.0000 0.8462 0.0000
vt 0.1129 0.0000 0.0000
vt 0.8458 0.0000 0.0000
vt 0.1542 0.0000 0.0000
vt 0.1954 0.0000 0.0000
vt 0.8046 0.0000 0.0000
vt 0.0000 0.8040 0.0000
vt 0.0000 0.1960 0.0000
vt 0.0000 0.1954 0.0000
vt 0.0000 0.8046 0.0000
vt 0.8040 0.0000 0.0000
vt 0.1960 0.0000 0.0000
vt 0.2333 0.0000 0.0000
vt 0.7667 0.0000 0.0000
vt 0.0000 0.7661 0.0000
vt 0.0000 0.2339 0.0000
vt 0.0000 0.2333 0.0000
vt 0.0000 0.7667 0.0000
vt 0.7661 0.0000 0.0000
vt 0.2339 0.0000 0.0000
vt 0.2874 0.0000 0.0000
vt 0.7126 0.0000 0.0000
vt 0.0000 0.7118 0.0000
vt 0.0000 0.2882 0.0000
vt 0.0000 0.2874 0.0000
vt 0.0000 0.7126 0.0000
vt 0.7118 0.0000 0.0000
vt 0.2882 0.0000 0.0000
vt 0.2683 0.0000 0.0000
vt 0.7317 0.0000 0.0000
vt 0.0000 0.7310 0.0000
vt 0.0000 0.2690 0.0000
vt 0.0000 0.2683 0.0000
vt 0.0000 0.7317 0.0000
vt 0.7310 0.0000 0.0000
vt 0.2690 0.0000 0.0000
vt 0.2343 0.0000 0.0000
vt 0.7657 0.0000 0.0000
vt 0.0000 0.7651 0.0000
vt 0.0000 0.2349 0.0000
vt 0.0000 0.2343 0.0000
vt 0.0000 0.7657 0.0000
vt 0.7651 0.0000 0.0000
vt 0.2349 0.0000 0.0000
vt 0.7203 0.0000 0.0000
vt 0.0000 0.7196 0.0000
vt 0.0000 0.2797 0.0000
vt 0.0000 0.7203 0.0000
vt 0.7196 0.0000 0.0000
vt 0.2804 0.0000 0.0000
vt 0.7430 0.0263 0.0000
vt 0.0379 0.1389 0.0000
vt 1.0383 0.0638 0.0000
vt 0.8561 0.0344 0.0000
vt -0.0000 1.0054 0.0000
vt 0.8178 1.0054 0.0000
vt -0.0383 0.9362 0.0000
vt 0.1439 0.9656 0.0000
vt 0.8561 0.9656 0.0000
vt 1.0383 0.9362 0.0000
vt 0.1822 1.0054 0.0000
vt 1.0000 1.0054 0.0000
vt 0.1439 0.0344 0.0000
vt -0.0383 0.0638 0.0000
vt 0.8178 -0.0054 0.0000
vt 0.0000 -0.0054 0.0000
vt 0.5184 0.0784 0.0000
vt 0.0784 0.5184 0.0000
vt 0.2020 0.2013 0.0000
# 99 texture coords

o Box001
g Box001
usemtl wire_018002001
s 1
f 1/1/1 2/2/2 3/3/3 4/4/4 
f 5/5/5 6/1/6 7/2/7 8/3/8 
f 9/6/9 10/7/10 11/8/11 12/9/12 
s 2
f 13/10/13 14/11/14 15/12/15 16/13/16 17/14/17 18/15/18 19/16/19 20/17/20 
s 1
f 16/10/16 21/18/21 22/19/22 17/17/17 
f 2/2/2 15/15/15 14/16/14 3/3/3 
f 7/2/7 19/15/19 18/16/18 8/3/8 
f 10/7/10 13/13/13 20/14/20 11/8/11 
f 21/18/21 23/20/23 24/21/24 22/19/22 
s 2
f 25/22/25 26/23/26 27/24/27 
s 1
f 1/1/1 4/4/4 28/25/28 29/26/29 
f 9/6/9 12/9/12 30/27/30 31/28/31 
f 6/29/6 5/5/5 32/30/32 33/31/33 
f 24/32/24 23/20/23 34/33/34 35/34/35 
f 29/26/29 28/25/28 36/35/36 37/36/37 
f 31/28/31 30/27/30 38/37/38 39/38/39 
f 33/31/33 32/30/32 40/39/40 41/40/41 
f 35/34/35 34/33/34 42/41/42 43/42/43 
f 37/36/37 36/35/36 44/43/44 45/44/45 
f 39/38/39 38/37/38 46/45/46 47/46/47 
f 41/40/41 40/39/40 48/47/48 49/48/49 
f 43/42/43 42/41/42 50/49/50 51/50/51 
f 45/44/45 44/43/44 52/51/52 53/52/53 
f 47/46/47 46/45/46 54/53/54 55/54/55 
f 49/48/49 48/47/48 56/55/56 57/56/57 
f 51/50/51 50/49/50 58/57/58 59/58/59 
f 53/52/53 52/51/52 60/51/60 61/52/61 
f 55/54/55 54/53/54 62/53/62 63/54/63 
f 57/56/57 56/55/56 64/55/64 65/56/65 
f 59/58/59 58/57/58 66/57/66 67/58/67 
f 61/52/61 60/51/60 68/51/68 69/52/69 
f 63/54/63 62/53/62 70/53/70 71/54/71 
f 65/56/65 64/55/64 72/55/72 73/56/73 
f 67/58/67 66/57/66 74/57/74 75/58/75 
f 69/52/69 68/51/68 76/59/76 77/60/77 
f 71/54/71 70/53/70 78/61/78 79/62/79 
f 73/56/73 72/55/72 80/63/80 81/64/81 
f 75/58/75 74/57/74 82/65/82 83/66/83 
f 77/60/77 76/59/76 84/67/84 85/68/85 
f 79/62/79 78/61/78 86/69/86 87/70/87 
f 81/64/81 80/63/80 88/71/88 89/72/89 
f 83/66/83 82/65/82 90/73/90 91/74/91 
f 85/68/85 84/67/84 92/67/92 93/68/93 
f 87/70/87 86/69/86 94/69/94 95/70/95 
f 89/72/89 88/71/88 96/71/96 97/72/97 
f 91/74/91 90/73/90 98/73/98 99/74/99 
f 93/68/93 92/67/92 25/22/25 100/75/100 
f 95/70/95 94/69/94 101/76/101 26/23/26 
f 97/72/97 96/71/96 102/77/102 103/78/103 
f 99/74/99 98/73/98 104/79/104 105/80/105 
s 4
f 1/81/1 23/20/23 21/18/21 2/82/2 
f 14/83/14 13/13/13 10/7/10 3/84/3 
f 6/85/6 12/9/12 11/8/11 7/86/7 
f 18/87/18 17/17/17 22/19/22 8/88/8 
f 7/89/7 11/8/11 20/14/20 19/90/19 
f 8/91/8 22/19/22 24/21/24 5/92/5 
f 2/93/2 21/18/21 16/10/16 15/94/15 
f 3/95/3 10/7/10 9/6/9 4/96/4 
f 23/20/23 1/1/1 29/26/29 34/33/34 
f 4/4/4 9/6/9 31/28/31 28/25/28 
f 12/9/12 6/29/6 33/31/33 30/27/30 
f 5/5/5 24/32/24 35/34/35 32/30/32 
f 34/33/34 29/26/29 37/36/37 42/41/42 
f 28/25/28 31/28/31 39/38/39 36/35/36 
f 30/27/30 33/31/33 41/40/41 38/37/38 
f 32/30/32 35/34/35 43/42/43 40/39/40 
f 42/41/42 37/36/37 45/44/45 50/49/50 
f 36/35/36 39/38/39 47/46/47 44/43/44 
f 38/37/38 41/40/41 49/48/49 46/45/46 
f 40/39/40 43/42/43 51/50/51 48/47/48 
f 50/49/50 45/44/45 53/52/53 58/57/58 
f 44/43/44 47/46/47 55/54/55 52/51/52 
f 46/45/46 49/48/49 57/56/57 54/53/54 
f 48/47/48 51/50/51 59/58/59 56/55/56 
f 58/57/58 53/52/53 61/52/61 66/57/66 
f 52/51/52 55/54/55 63/54/63 60/51/60 
f 54/53/54 57/56/57 65/56/65 62/53/62 
f 56/55/56 59/58/59 67/58/67 64/55/64 
f 66/57/66 61/52/61 69/52/69 74/57/74 
f 60/51/60 63/54/63 71/54/71 68/51/68 
f 62/53/62 65/56/65 73/56/73 70/53/70 
f 64/55/64 67/58/67 75/58/75 72/55/72 
f 74/57/74 69/52/69 77/60/77 82/65/82 
f 68/51/68 71/54/71 79/62/79 76/59/76 
f 70/53/70 73/56/73 81/64/81 78/61/78 
f 72/55/72 75/58/75 83/66/83 80/63/80 
f 82/65/82 77/60/77 85/68/85 90/73/90 
f 76/59/76 79/62/79 87/70/87 84/67/84 
f 78/61/78 81/64/81 89/72/89 86/69/86 
f 80/63/80 83/66/83 91/74/91 88/71/88 
f 90/73/90 85/68/85 93/68/93 98/73/98 
f 84/67/84 87/70/87 95/70/95 92/67/92 
f 86/69/86 89/72/89 97/72/97 94/69/94 
f 88/71/88 91/74/91 99/74/99 96/71/96 
f 98/73/98 93/68/93 100/75/100 104/79/104 
f 92/67/92 95/70/95 26/23/26 25/22/25 
f 94/69/94 97/72/97 103/78/103 101/76/101 
f 96/71/96 99/74/99 105/80/105 102/77/102 
s 2
f 104/79/104 100/75/100 106/97/106 
f 106/97/106 100/75/100 25/22/25 27/24/27 
f 101/76/101 103/78/103 107/98/107 
f 107/98/107 103/78/103 102/77/102 108/99/108 
f 108/99/108 102/77/102 105/80/105 
f 105/80/105 104/79/104 106/97/106 108/99/108 
f 108/99/108 106/97/106 27/24/27 107/98/107 
f 107/98/107 27/24/27 26/23/26 101/76/101 
# 102 polygons - 4 triangles

